<svg aria-hidden="true" class="header__icon icon icon-logo-staci" enable-background="new 0 0 166 73" focusable="false" viewBox="0 0 166 73" xmlns="http://www.w3.org/2000/svg">
<path class="icon-logo-staci__blue" clip-rule="evenodd" d="M161 .1a3.9 3.9 0 103.9 3.9c-.1-2.2-1.8-3.9-3.9-3.9" fill-rule="evenodd"></path>
<path class="icon-logo-staci__blue" clip-rule="evenodd" d="M163.7 39.5h-.3V11h-6.1c-1.3 0-2.3 1-2.3 2.3 0 1.2 1.1 2.3 2.3 2.3h.2v28.5h6.1c1.3 0 2.3-1 2.3-2.3.1-1.3-1-2.3-2.2-2.3M61 28.2c-2.2-1.8-5.5-2.9-8.4-3.7h-.1c-2.6-.7-5.1-1.4-6.6-2.5-.6-.5-.9-1.1-.9-1.8v-.1c0-2.2 2.3-3.7 5.7-3.7 2.6 0 5.4.8 8.3 2.3.2.1.7.3 1.4.3 1.6 0 2.9-1.2 2.9-2.6 0-.9-.5-1.7-1.3-2.3-.2-.2-.4-.3-.7-.5C57.8 12 53.9 11 50.4 11c-7 0-11.9 3.8-11.9 9.3v.1c0 2.4 1 4.3 3 5.8 2.4 2 5.9 2.9 8.8 3.7 4.4 1.1 5.6 1.8 6.4 2.4.7.6 1 1.3 1 2.1v.1c0 2.5-2.5 4.1-6.1 4.1-3.4 0-6.7-1-10-3.1-.4-.3-1-.5-1.6-.5-1.6 0-2.9 1.2-2.9 2.6 0 1 .6 1.8 1.2 2.2.1.1.2.2.4.3 3.7 2.5 8.6 3.9 13.1 3.9 3.4 0 6.5-.9 8.7-2.5 2.4-1.8 3.7-4.3 3.7-7.2v-.1c-.2-2.5-1.2-4.4-3.2-6M149.3 34.3c-.7 0-1.2.3-1.8.8-2.5 2.4-5.1 3.5-8 3.5-5.9 0-10.5-4.9-10.5-11.1v-.1c0-6.2 4.5-11.1 10.2-11.1 3.6 0 6 1.8 7.8 3.5.5.4 1.2.7 1.9.7 1.6 0 2.9-1.3 2.9-2.8 0-1-.5-1.7-.9-2.1a16.4 16.4 0 00-11.6-4.6c-4.4 0-8.6 1.7-11.6 4.9-3 3.1-4.7 7.2-4.7 11.6v.1A16.35 16.35 0 00139.3 44c4.7 0 8.5-1.6 11.9-5.1.5-.5.8-1.2.8-1.9 0-1.4-1.3-2.7-2.7-2.7M111.2 29.1v2.4c0 4.3-4 7.5-9.4 7.5-3.3 0-6.9-1.7-6.9-5.4v-.1c0-1.7.7-3.1 2.1-4.1 1.4-1 3.5-1.5 6-1.5 2.8.1 5.5.5 8.2 1.2m6.1 9.7h-.5V23.9c0-4-1.1-7.1-3.3-9.3-2.3-2.3-5.8-3.5-10.2-3.5-3.6 0-6.8.6-10.1 2.1-.8.3-1.6 1.2-1.6 2.5 0 1.4 1.2 2.6 2.7 2.6.3 0 .7-.1 1.1-.2 2.5-1.1 4.9-1.6 7.5-1.6 2.7 0 4.8.7 6.2 2 1.4 1.3 2.1 3.2 2.1 5.6v.5c-2.1-.6-4.8-1.1-8.6-1.1-4 0-7.3.9-9.7 2.6a9.26 9.26 0 00-3.9 7.8v.1c0 6.6 6 10.1 11.9 10.1 4.8 0 8-2 10-3.8V44h6.4c1.5 0 2.7-1.2 2.7-2.6 0-1.4-1.2-2.6-2.7-2.6M83.3 38.1c-.2 0-.4.1-.7.1-.4.1-1.1.3-2.1.3-3.1 0-4.5-1.4-4.5-4.4V18h7.2c1.5 0 2.8-1.2 2.8-2.7 0-1.5-1.3-2.7-2.8-2.7H76V5c0-1.6-1.4-3-3-3-1.7 0-3 1.3-3 3v29.7c0 3 .8 5.3 2.4 6.9 1.6 1.6 4 2.4 7 2.4 1.8 0 3.3-.3 4.8-.9 1.1-.4 1.8-1.3 1.8-2.4 0-1.4-1.2-2.6-2.7-2.6" fill-rule="evenodd"></path>
<path class="icon-logo-staci__cyan" clip-rule="evenodd" d="M3.6 27.8L31 44V5.8c0-2.9-3-4.7-5.5-3.3L3.7 14.9c-4.9 2.9-4.9 10.1-.1 12.9" fill-rule="evenodd"></path>
<path class="icon-logo-staci__blue" clip-rule="evenodd" d="M27.4 47.2L0 31v38.2c0 2.9 3 4.7 5.5 3.3L27.3 60c4.9-2.8 4.9-10 .1-12.8" fill-rule="evenodd"></path>
<path class="icon-logo-staci__cyan" clip-rule="evenodd" d="M37 54.8c0-.4.4-.8.9-.8h4.4c.4 0 .8.3.8.7 0 .4-.3.7-.8.7h-3.5v1.5h3c.4 0 .8.3.8.7 0 .4-.3.7-.8.7h-3v2c0 .4-.4.8-.9.8s-.9-.3-.9-.8v-5.5zM44 54.8c0-.4.3-.8.8-.8.4 0 .8.3.8.8v4.8h2.8c.4 0 .7.3.7.7 0 .4-.3.7-.7.7h-3.6c-.4 0-.8-.3-.8-.8v-5.4zM50 60.2v-5.5c0-.4.4-.8.9-.8h4.3c.4 0 .8.3.8.7s-.3.7-.8.7h-3.5v1.4h3c.4 0 .8.3.8.7 0 .4-.3.7-.8.7h-3v1.5h3.5c.4 0 .8.3.8.7 0 .4-.3.7-.8.7h-4.4c-.4 0-.8-.3-.8-.8M58.2 59.7l1.8-2.3-1.7-2.1c-.1-.1-.2-.3-.2-.6 0-.4.3-.7.7-.7.3 0 .5.1.7.4l1.5 2 1.5-2c.2-.3.4-.4.7-.4.3 0 .7.3.7.7 0 .2-.1.4-.2.6L62 57.4l1.8 2.3c.1.1.2.3.2.6 0 .4-.3.7-.7.7-.3 0-.5-.1-.7-.4L61 58.5l-1.6 2.1c-.2.3-.4.4-.7.4s-.7-.3-.7-.7c0-.2.1-.4.2-.6M66 58c0-.5.3-1 .7-1h1.6c.4 0 .7.5.7 1s-.3 1-.7 1h-1.6c-.4 0-.7-.5-.7-1M72 54.8c0-.4.3-.8.8-.8h.2c.3 0 .6.2.7.4l1.9 3 1.9-3c.2-.3.4-.4.7-.4h.2c.4 0 .8.3.8.8v5.5c0 .4-.3.8-.8.8-.4 0-.8-.3-.8-.8v-3.4L76.2 59c-.2.2-.4.4-.6.4-.3 0-.5-.1-.6-.4l-1.3-2v3.4c0 .4-.3.7-.8.7-.4 0-.8-.3-.8-.7v-5.6zM85.5 58.1l-1-2.3-1 2.3h2zM81.1 60l2.5-5.4c.2-.4.5-.6.9-.6h.1c.4 0 .7.2.9.6L88 60c.1.1.1.2.1.3 0 .4-.3.7-.7.7-.4 0-.6-.2-.7-.5l-.7-1.1h-3.1l-.5 1.1c-.1.3-.4.5-.7.5-.4 0-.7-.3-.7-.7 0-.1 0-.2.1-.3zM92 59.6c1.4 0 2.3-.9 2.3-2.1 0-1.2-.9-2.1-2.3-2.1h-1.3v4.2H92zm-3-4.8c0-.4.4-.8.8-.8H92c2.4 0 4 1.5 4 3.5S94.4 61 92 61h-2.1c-.5 0-.8-.3-.8-.8v-5.4zM97 60.2v-5.5c0-.4.4-.8.9-.8h4.3c.4 0 .8.3.8.7s-.3.7-.8.7h-3.5v1.4h3c.4 0 .8.3.8.7 0 .4-.3.7-.8.7h-3v1.5h3.5c.4 0 .8.3.8.7 0 .4-.3.7-.8.7h-4.4c-.4 0-.8-.3-.8-.8M108 54.8c0-.4.3-.8.8-.8s.8.3.8.8v4.8h2.8c.4 0 .7.3.7.7 0 .4-.3.7-.7.7h-3.6c-.4 0-.8-.3-.8-.8v-5.4zM120.3 57.5c0-1.2-.9-2.1-2.3-2.1s-2.3.9-2.3 2.1c0 1.2.9 2.1 2.3 2.1s2.3-.9 2.3-2.1m-6.3 0c0-1.9 1.7-3.5 4-3.5s4 1.6 4 3.5-1.7 3.5-4 3.5-4-1.6-4-3.5M123 57.5c0-1.9 1.6-3.5 3.9-3.5 1.1 0 1.8.2 2.5.7.2.1.3.3.3.6 0 .4-.4.7-.8.7-.2 0-.4-.1-.5-.2-.4-.3-.9-.5-1.6-.5-1.2 0-2.1 1-2.1 2.1 0 1.2.9 2.1 2.2 2.1.6 0 1.1-.1 1.5-.4v-1h-1.1c-.4 0-.7-.3-.7-.6 0-.4.3-.6.7-.6h1.8c.5 0 .8.3.8.7v1.6c0 .4-.2.7-.6.9-.6.3-1.5.7-2.6.7-2.1.2-3.7-1.3-3.7-3.3M132 54.8c0-.4.4-.8 1-.8s1 .3 1 .8v5.5c0 .4-.4.8-1 .8s-1-.3-1-.8v-5.5zM135.3 60.2c-.2-.1-.3-.3-.3-.6 0-.4.3-.7.8-.7.2 0 .4.1.5.1.6.4 1.2.6 2 .6.7 0 1.1-.2 1.1-.6 0-.4-.3-.6-1.5-.9-1.5-.3-2.5-.7-2.5-2.1 0-1.2 1.1-2.1 2.7-2.1.9 0 1.7.2 2.4.6.2.1.4.3.4.6 0 .4-.3.7-.8.7-.2 0-.3 0-.4-.1-.6-.3-1.1-.5-1.6-.5-.6 0-1 .3-1 .6 0 .4.3.6 1.7.9 1.6.4 2.4.9 2.4 2 0 1.4-1.2 2.1-2.8 2.1-1.2.2-2.2-.1-3.1-.6M144.2 55.4h-1.5c-.4 0-.7-.3-.7-.7 0-.4.3-.7.7-.7h4.6c.4 0 .7.3.7.7 0 .4-.3.7-.7.7h-1.5v4.8c0 .4-.3.8-.8.8s-.8-.3-.8-.8v-4.8zM149 54.8c0-.4.4-.8 1-.8s1 .3 1 .8v5.5c0 .4-.4.8-1 .8s-1-.3-1-.8v-5.5zM152 57.5c0-1.9 1.7-3.5 4-3.5 1.2 0 1.9.3 2.6.7.2.1.3.3.3.6 0 .4-.4.7-.8.7-.2 0-.4-.1-.5-.1-.5-.3-1-.5-1.6-.5-1.3 0-2.2.9-2.2 2.1 0 1.2.9 2.1 2.2 2.1.7 0 1.2-.2 1.7-.5.1-.1.3-.2.5-.2.4 0 .8.3.8.7 0 .2-.1.4-.3.5-.7.5-1.5.9-2.7.9-2.3 0-4-1.5-4-3.5M160.3 60.2c-.2-.1-.3-.3-.3-.6 0-.4.3-.7.8-.7.2 0 .4.1.5.1.6.4 1.2.6 2 .6.7 0 1.1-.2 1.1-.6 0-.4-.3-.6-1.5-.9-1.5-.3-2.5-.7-2.5-2.1 0-1.2 1.1-2.1 2.7-2.1.9 0 1.7.2 2.4.6.2.1.4.3.4.6 0 .4-.3.7-.8.7-.2 0-.3 0-.4-.1-.6-.3-1.1-.5-1.6-.5-.6 0-1 .3-1 .6 0 .4.3.6 1.7.9 1.6.4 2.4.9 2.4 2 0 1.4-1.2 2.1-2.8 2.1-1.2.2-2.2-.1-3.1-.6" fill-rule="evenodd"></path>
</svg>