<?xml version="1.0" encoding="UTF-8"?> <svg xmlns="http://www.w3.org/2000/svg" xmlns:xlink="http://www.w3.org/1999/xlink" id="Group_751" viewBox="0 0 169.86 51.55"><defs><style>.cls-1{clip-path:url(#clippath);}.cls-2{fill:none;}.cls-2,.cls-3,.cls-4,.cls-5,.cls-6{stroke-width:0px;}.cls-4{fill:#c4e1f7;}.cls-5{fill:#fff;}.cls-6{fill:#003aa0;}</style><clipPath id="clippath"><rect class="cls-2" width="169.86" height="51.55"></rect></clipPath></defs><g class="cls-1"><g id="Group_1"><path id="Path_1" class="cls-6" d="m55.36,9.95v31.65c0,5.49-4.45,9.94-9.94,9.95H9.95C4.45,51.55,0,47.1,0,41.6c0,0,0,0,0,0V9.95C0,4.46,4.45,0,9.95,0c0,0,0,0,0,0h35.47c5.49,0,9.95,4.46,9.94,9.95"></path><path id="Path_2" class="cls-5" d="m13.6,13.15c6.01,0,9.29,2.14,9.29,6.67.08,2.32-1.24,4.46-3.35,5.42,2.63.8,4.35,3.31,4.17,6.05,0,3.94-2.58,7.3-9.29,7.3H5.08V13.15h8.52Zm-3.35,10.06h3.43c2.84,0,4.06-1.11,4.06-2.91s-.89-2.8-4.61-2.8h-2.88v5.71Zm0,11.02h3.72c3.1,0,4.57-1.18,4.57-3.35,0-2.4-1.59-3.32-5.05-3.32h-3.24v6.67Z"></path><path id="Path_3" class="cls-4" d="m26.78,34.28h15.7l-1.04,4.35h-20.86l6.08-25.44h5.16l-5.04,21.09Z"></path><path id="Path_4" class="cls-5" d="m46.15,19.46c-1.11-1.73-2.43-2.58-5.01-2.58-2.32,0-3.58,1.07-3.58,2.8,0,1.99,1.62,2.88,5.01,3.72,5.31,1.33,7.7,3.32,7.7,7.81,0,4.17-2.8,7.41-8.77,7.41-4.46,0-7.56-1.22-9.81-4.17l3.94-2.73c1.29,1.73,3.37,2.69,5.53,2.54,2.95,0,3.94-1.29,3.94-2.84,0-1.77-1.07-2.76-5.2-3.83-5.01-1.32-7.52-3.72-7.52-7.92s2.65-7.15,8.7-7.15c4.06,0,7.11,1.36,8.92,4.17l-3.86,2.76Z"></path><path id="Path_5" class="cls-3" d="m67.2,23.56V7.02h5.81c.99-.03,1.98.16,2.89.56.71.32,1.31.85,1.71,1.51.38.65.58,1.39.57,2.14.03.75-.17,1.49-.55,2.13-.36.55-.85,1-1.44,1.3-.59.3-1.22.48-1.88.54l.33-.24c.69.01,1.37.21,1.96.57,1.23.74,1.98,2.08,1.96,3.52,0,.8-.2,1.59-.61,2.28-.43.71-1.06,1.27-1.81,1.63-.92.43-1.93.63-2.94.6h-6Zm1.99-9.31h3.69c.88.06,1.75-.21,2.45-.76.57-.53.88-1.28.84-2.06.03-.76-.28-1.5-.84-2.01-.72-.56-1.61-.82-2.52-.76h-3.62v5.58Zm0,7.66h3.8c.94.06,1.86-.22,2.61-.79.63-.55.98-1.37.93-2.21.03-.85-.32-1.67-.96-2.23-.74-.59-1.68-.89-2.63-.84h-3.76v6.07Z"></path><path id="Path_6" class="cls-3" d="m80.62,23.56v-11.91h1.8l.14,2.27c.25-.52.6-.98,1.03-1.37.44-.39.95-.69,1.51-.87.65-.21,1.33-.32,2.02-.31v2.08h-.73c-.49,0-.97.06-1.44.2-.45.13-.86.35-1.22.65-.37.33-.66.75-.83,1.22-.21.61-.32,1.25-.3,1.9v6.14h-1.99Z"></path><path id="Path_7" class="cls-3" d="m89.84,9.12c-.74.02-1.35-.56-1.37-1.29,0-.03,0-.05,0-.08-.01-.36.13-.71.39-.96.56-.49,1.39-.49,1.95,0,.27.24.41.59.4.96.01.37-.13.72-.4.98-.26.26-.61.4-.97.39m-.99,2.53h1.98v11.91h-1.99v-11.91Z"></path><path id="Path_8" class="cls-3" d="m93.62,23.56v-11.91h1.8l.09,2.08c.36-.72.92-1.33,1.62-1.74.73-.42,1.56-.64,2.4-.63.84-.02,1.67.17,2.41.56.69.38,1.24.97,1.58,1.68.41.89.6,1.87.57,2.85v7.11h-1.98v-6.9c.07-.96-.21-1.92-.79-2.69-.57-.62-1.39-.95-2.23-.9-.62,0-1.24.16-1.77.48-.53.34-.96.82-1.24,1.39-.33.71-.49,1.48-.46,2.26v6.35h-1.99Z"></path><path id="Path_9" class="cls-3" d="m111.69,23.84c-1.04.02-2.07-.25-2.96-.78-.86-.53-1.56-1.28-2.02-2.19-.51-1.01-.76-2.14-.73-3.27-.03-1.14.22-2.26.72-3.28.46-.9,1.16-1.66,2.03-2.17.91-.53,1.96-.8,3.01-.78,1.04-.03,2.07.24,2.96.78.79.5,1.44,1.21,1.87,2.04.44.86.66,1.81.65,2.78v.5c0,.17,0,.37-.02.59h-9.73v-1.54h7.82c0-.96-.38-1.88-1.08-2.55-.69-.62-1.59-.95-2.52-.92-.65,0-1.3.15-1.88.46-.58.31-1.06.78-1.38,1.35-.37.68-.55,1.44-.52,2.21v.66c-.03.85.16,1.7.54,2.46.62,1.23,1.88,2,3.25,1.98.73.03,1.45-.16,2.07-.56.54-.36.95-.89,1.17-1.5h1.96c-.38,1.44-1.39,2.63-2.75,3.25-.77.34-1.6.5-2.45.48"></path><path id="Path_10" class="cls-3" d="m124.87,23.56V7.02h1.98v14.96h7.7v1.58h-9.68Z"></path><path id="Path_11" class="cls-3" d="m141.22,23.84c-1.04.02-2.07-.25-2.96-.78-.86-.53-1.56-1.28-2.02-2.19-.51-1.01-.76-2.14-.73-3.27-.03-1.14.22-2.26.72-3.28.46-.9,1.16-1.66,2.03-2.17.91-.53,1.96-.8,3.01-.78,1.04-.03,2.07.24,2.96.78.79.5,1.44,1.21,1.87,2.04.44.86.66,1.81.65,2.78v.5c0,.17,0,.37-.02.59h-9.73v-1.54h7.82c0-.96-.38-1.88-1.08-2.55-.69-.62-1.59-.95-2.52-.92-.65,0-1.3.15-1.88.46-.58.31-1.06.78-1.38,1.35-.37.68-.55,1.44-.52,2.21v.66c-.03.85.15,1.69.53,2.46.62,1.23,1.88,2,3.25,1.98.73.03,1.45-.16,2.07-.56.54-.36.95-.89,1.17-1.5h1.96c-.38,1.44-1.39,2.63-2.75,3.25-.77.34-1.6.5-2.45.48"></path><path id="Path_12" class="cls-3" d="m152.59,23.84c-.83.03-1.66-.15-2.41-.51-.6-.3-1.1-.77-1.44-1.35-.32-.56-.48-1.19-.47-1.83-.02-.73.2-1.45.63-2.04.46-.59,1.07-1.03,1.77-1.28.87-.31,1.78-.46,2.7-.44h3.14c.02-.64-.1-1.27-.34-1.85-.2-.47-.55-.86-.99-1.12-.5-.27-1.05-.4-1.62-.38-.7-.02-1.38.18-1.96.57-.56.39-.93,1-1.02,1.67h-2.03c.07-.78.37-1.53.86-2.14.49-.58,1.12-1.04,1.83-1.32.73-.31,1.52-.46,2.32-.46.95-.03,1.9.17,2.75.6.71.38,1.28.96,1.64,1.68.38.79.56,1.66.54,2.54v7.37h-1.77l-.12-2.1c-.16.34-.36.65-.6.93-.25.29-.54.55-.86.76-.35.22-.73.39-1.12.51-.46.13-.95.2-1.43.19m.31-1.68c.52,0,1.03-.11,1.5-.34.45-.23.84-.55,1.15-.94.31-.4.56-.85.72-1.33.17-.49.25-1.01.25-1.54v-.07h-2.98c-.63-.02-1.27.07-1.87.27-.81.24-1.36,1.01-1.32,1.85,0,.39.1.78.3,1.11.21.33.52.58.87.73.44.18.91.27,1.38.26"></path><path id="Path_13" class="cls-3" d="m165.34,23.84c-.89.02-1.77-.15-2.59-.5-1.42-.6-2.4-1.94-2.54-3.47h2.03c.08.41.25.8.5,1.13.27.36.62.65,1.03.84.5.23,1.05.34,1.6.32.47.02.94-.07,1.37-.25.33-.14.61-.37.82-.67.18-.27.27-.59.27-.92.03-.4-.09-.8-.34-1.11-.28-.28-.62-.49-1-.6-.53-.17-1.06-.3-1.61-.39-.52-.09-1.03-.22-1.54-.38-.48-.14-.93-.35-1.35-.63-.38-.24-.7-.57-.93-.96-.24-.42-.36-.91-.34-1.39-.01-.64.17-1.27.52-1.81.37-.55.89-.98,1.5-1.24.72-.31,1.5-.47,2.28-.45,1.11-.05,2.2.27,3.1.92.81.66,1.32,1.63,1.39,2.67h-1.96c-.05-.55-.33-1.06-.77-1.41-.52-.37-1.15-.54-1.78-.51-.6-.04-1.19.12-1.69.45-.37.28-.59.72-.58,1.18,0,.31.11.61.32.84.26.28.59.49.95.63.5.2,1.02.34,1.55.43.73.13,1.45.32,2.15.57.6.21,1.14.57,1.56,1.05.43.56.65,1.26.6,1.97.01.69-.18,1.36-.55,1.94-.39.57-.94,1.02-1.57,1.29-.75.32-1.57.48-2.39.46"></path><path id="Path_14" class="cls-3" d="m72.47,44.29c-1.09.03-2.18-.2-3.17-.66-.86-.4-1.58-1.04-2.08-1.84-.5-.83-.75-1.78-.73-2.74h2.08c0,.62.15,1.24.45,1.78.3.55.76,1,1.31,1.3.66.34,1.4.51,2.14.48.65.02,1.3-.11,1.9-.37.49-.21.9-.56,1.2-1,.28-.43.42-.93.41-1.44.03-.55-.12-1.1-.41-1.57-.29-.41-.67-.75-1.12-.98-.53-.27-1.08-.5-1.64-.67-.62-.2-1.27-.41-1.95-.63-1.08-.31-2.07-.88-2.88-1.65-.63-.71-.96-1.63-.92-2.58-.02-.83.2-1.65.63-2.36.44-.69,1.06-1.25,1.8-1.6.87-.4,1.82-.6,2.78-.58.95-.02,1.89.18,2.75.59.75.36,1.38.92,1.83,1.62.45.71.68,1.53.66,2.37h-2.08c0-.47-.13-.94-.36-1.35-.25-.46-.62-.84-1.07-1.1-.55-.31-1.18-.46-1.81-.44-.55-.02-1.09.08-1.59.3-.44.19-.82.51-1.09.91-.27.43-.41.93-.39,1.44-.02.46.1.91.34,1.3.26.36.6.64.99.84.49.25,1,.46,1.52.63.58.19,1.23.4,1.94.64.75.24,1.47.57,2.14.98.6.37,1.1.87,1.46,1.48.38.7.56,1.49.53,2.29,0,.79-.22,1.56-.63,2.23-.45.73-1.09,1.32-1.85,1.71-.96.47-2.02.7-3.1.66"></path><path id="Path_15" class="cls-3" d="m85.44,44.29c-1.06.02-2.1-.25-3.01-.78-.89-.52-1.61-1.28-2.09-2.19-.52-1-.78-2.12-.76-3.25-.03-1.15.23-2.28.76-3.3.48-.91,1.2-1.67,2.09-2.19.92-.53,1.96-.8,3.01-.78,1.27-.05,2.52.34,3.54,1.1.94.72,1.58,1.77,1.8,2.94h-2.03c-.14-.71-.55-1.33-1.16-1.72-.65-.42-1.41-.62-2.18-.6-.66,0-1.32.17-1.89.51-.6.36-1.09.88-1.39,1.51-.37.79-.55,1.65-.52,2.52-.01.67.09,1.34.31,1.97.18.53.46,1.01.83,1.43.34.37.75.67,1.22.86.46.2.95.3,1.45.3.52,0,1.04-.09,1.52-.28.45-.18.85-.46,1.17-.82.32-.36.54-.79.64-1.26h2.03c-.23,1.16-.87,2.2-1.81,2.92-1.01.77-2.26,1.16-3.53,1.12"></path><path id="Path_16" class="cls-3" d="m92.88,44.01v-17.01h1.98v7.11c.39-.7.97-1.28,1.67-1.68.72-.41,1.53-.62,2.35-.61.83-.02,1.65.17,2.39.56.69.38,1.23.97,1.56,1.69.39.9.58,1.88.54,2.86v7.09h-1.96v-6.88c.07-.96-.2-1.92-.76-2.7-.55-.63-1.37-.96-2.2-.91-1.32-.02-2.54.72-3.12,1.91-.34.71-.5,1.49-.47,2.27v6.31h-1.98Z"></path><path id="Path_17" class="cls-3" d="m111.1,44.29c-1.05.02-2.09-.25-3-.77-.88-.51-1.61-1.27-2.08-2.17-1.01-2.08-1.01-4.51.01-6.59.48-.91,1.21-1.66,2.1-2.17.92-.52,1.96-.78,3.01-.77,1.05-.02,2.08.25,2.99.77.88.52,1.6,1.26,2.08,2.16.53,1.02.8,2.16.77,3.31.03,1.15-.24,2.29-.78,3.3-.49.9-1.21,1.66-2.1,2.17-.91.52-1.95.79-3,.77m0-1.7c.66,0,1.32-.17,1.89-.51.61-.36,1.1-.89,1.42-1.52.38-.78.57-1.63.54-2.5.03-.87-.15-1.73-.53-2.52-.31-.63-.8-1.16-1.4-1.53-.57-.34-1.22-.51-1.88-.51-.67,0-1.32.17-1.9.51-.61.36-1.1.88-1.42,1.51-.71,1.6-.71,3.42,0,5.02.31.63.79,1.16,1.39,1.52.57.34,1.22.51,1.88.51"></path><path id="Path_18" class="cls-3" d="m124.4,44.29c-1.05.02-2.09-.25-3-.77-.88-.51-1.61-1.27-2.08-2.17-1.01-2.08-1.01-4.51.01-6.59.48-.91,1.21-1.66,2.1-2.17.92-.52,1.96-.78,3.01-.77,1.05-.02,2.08.25,2.99.77.88.52,1.6,1.26,2.08,2.16.53,1.02.8,2.16.77,3.31.03,1.15-.24,2.29-.78,3.3-.49.9-1.21,1.66-2.1,2.17-.91.52-1.95.79-3,.77m0-1.7c.66,0,1.32-.17,1.89-.51.61-.36,1.1-.89,1.42-1.52.38-.78.57-1.63.54-2.5.03-.87-.15-1.73-.53-2.52-.31-.63-.8-1.16-1.4-1.53-.57-.34-1.22-.51-1.88-.51-.67,0-1.32.17-1.9.51-.61.36-1.1.88-1.42,1.51-.71,1.6-.71,3.42,0,5.02.31.63.79,1.16,1.39,1.52.57.34,1.22.51,1.88.51"></path><rect id="Rectangle_106" class="cls-3" x="132.36" y="27" width="1.98" height="17.01"></rect></g></g></svg> 