<svg viewBox="109.85604000000001 0 110.11980000000001 83.38" xmlns="http://www.w3.org/2000/svg" id="uuid-d163d3a4-4101-43ff-9a4f-cdaf417990b5" style="max-height: 500px" width="110.11980000000001" height="83.38"><ellipse style="fill:#000000;" ry="41.8" rx="47.3" cy="41.8" cx="47.3"/><path style="fill:#000000;" d="M111.1,26.85V11.35h4c1.7,0,3,.3,3.9,1,.9,.6,1.4,1.5,1.4,2.7,0,.9-.2,1.6-.7,2.2s-1.2,1-2.1,1.3c1.1,.3,1.9,.8,2.4,1.4,.5,.7,.8,1.5,.8,2.6,0,1.4-.6,2.5-1.7,3.3s-2.7,1.1-4.8,1.1h-3.2v-.1Zm1.8-9h2c1.1,0,2.1-.2,2.7-.7,.7-.5,1-1.1,1-2,0-.8-.3-1.4-.9-1.8s-1.6-.6-2.9-.6h-1.9s0,5.1,0,5.1Zm0,7.5h1.8c1.3,0,2.4-.3,3.1-.8s1.1-1.3,1.1-2.3c0-.9-.4-1.7-1.1-2.2s-1.8-.8-3.1-.8h-1.8v6.1Z"/><path style="fill:#000000;" d="M123,19.05c0-1.2,.2-2.2,.6-3.2s.9-1.9,1.7-2.7c.7-.8,1.5-1.3,2.5-1.7,.9-.4,1.9-.6,2.9-.6s2,.2,2.9,.6c.9,.4,1.7,1,2.5,1.8,.7,.8,1.3,1.7,1.7,2.7s.6,2.1,.6,3.2c0,1-.1,1.9-.4,2.8-.3,.9-.6,1.6-1.2,2.4-.7,1-1.6,1.8-2.7,2.3-1.1,.6-2.2,.8-3.4,.8-1,0-2-.2-2.9-.6-.9-.4-1.8-1-2.5-1.8s-1.3-1.7-1.7-2.7c-.4-1-.6-2.1-.6-3.3Zm1.9,0c0,1.9,.6,3.4,1.7,4.7,1.1,1.3,2.5,1.9,4.1,1.9s3-.6,4.1-1.9,1.6-2.8,1.6-4.7-.5-3.5-1.6-4.7c-1.1-1.2-2.5-1.9-4.1-1.9s-3,.6-4.1,1.9c-1.1,1.3-1.7,2.9-1.7,4.7Z"/><path style="fill:#000000;" d="M145.1,27.55h-.2l-5.4-16.2h1.9l3.7,11.6,4.1-12.1h.2l3.8,12.1,3.7-11.6h1.8l-5.5,16.3h-.2l-3.8-12.1-4.1,12Z"/><path style="fill:#000000;" d="M172.1,25.85c-.7,.5-1.4,.9-2.2,1.1-.8,.3-1.6,.4-2.4,.4-.9,0-1.7-.1-2.6-.4-.8-.3-1.6-.7-2.2-1.3-1-.8-1.7-1.7-2.2-2.9-.5-1.1-.8-2.4-.8-3.7,0-2.4,.7-4.4,2.2-6s3.4-2.4,5.6-2.4c.8,0,1.6,.1,2.4,.4,.8,.2,1.5,.6,2.2,1.1l-.2,1.9c-.7-.6-1.4-1-2.1-1.3-.7-.3-1.4-.4-2.2-.4-1.7,0-3.2,.6-4.3,1.9-1.1,1.3-1.7,2.8-1.7,4.8s.6,3.5,1.7,4.7c1.1,1.2,2.5,1.9,4.3,1.9,.8,0,1.6-.2,2.4-.5,.8-.3,1.6-.8,2.4-1.5l-.3,2.2Z"/><path style="fill:#000000;" d="M173.9,19.05c0-1.2,.2-2.2,.6-3.2,.4-1,.9-1.9,1.7-2.7,.7-.8,1.5-1.3,2.5-1.7,.9-.4,1.9-.6,2.9-.6s2,.2,2.9,.6c.9,.4,1.7,1,2.5,1.8,.7,.8,1.3,1.7,1.7,2.7s.6,2.1,.6,3.2c0,1-.1,1.9-.4,2.8-.3,.9-.6,1.6-1.2,2.4-.7,1-1.6,1.8-2.7,2.3-1.1,.6-2.2,.8-3.4,.8-1,0-2-.2-2.9-.6s-1.8-1-2.5-1.8-1.3-1.7-1.7-2.7c-.4-1-.6-2.1-.6-3.3Zm1.9,0c0,1.9,.6,3.4,1.7,4.7,1.1,1.3,2.5,1.9,4.1,1.9s3-.6,4.1-1.9,1.7-2.8,1.7-4.7-.6-3.5-1.6-4.7c-1.1-1.2-2.5-1.9-4.1-1.9s-3,.6-4.1,1.9c-1.3,1.3-1.8,2.9-1.8,4.7Z"/><path style="fill:#000000;" d="M203.5,25.85c-.7,.5-1.4,.9-2.2,1.1-.8,.3-1.6,.4-2.4,.4-.9,0-1.7-.1-2.6-.4-.8-.3-1.6-.7-2.2-1.3-1-.8-1.7-1.7-2.2-2.9-.5-1.1-.8-2.4-.8-3.7,0-2.4,.7-4.4,2.2-6s3.4-2.4,5.6-2.4c.8,0,1.6,.1,2.4,.4,.8,.2,1.5,.6,2.2,1.1l-.2,1.9c-.7-.6-1.4-1-2.1-1.3-.7-.3-1.4-.4-2.2-.4-1.7,0-3.2,.6-4.3,1.9-1.1,1.3-1.7,2.8-1.7,4.8s.6,3.5,1.7,4.7c1.1,1.2,2.5,1.9,4.3,1.9,.8,0,1.6-.2,2.4-.5,.8-.3,1.6-.8,2.4-1.5l-.3,2.2Z"/><path style="fill:#000000;" d="M206.5,26.85V11.35h1.8v7.5l7.4-7.5h2.4l-7.4,7.5,8.4,8.1h-2.5l-8.3-7.8v7.8h-1.8v-.1Z"/><path style="fill:#000000;" d="M119.1,49.05c-.8,.7-1.7,1.2-2.5,1.5s-1.7,.5-2.6,.5c-1.4,0-2.5-.4-3.3-1.1-.9-.8-1.3-1.7-1.3-2.9,0-1,.3-1.8,.9-2.7,.6-.8,1.4-1.6,2.6-2.3-.6-.7-1-1.3-1.3-1.8-.3-.6-.4-1.1-.4-1.6,0-.9,.3-1.6,.9-2.1,.6-.6,1.4-.8,2.3-.8,1,0,1.8,.3,2.4,.9,.7,.6,1,1.4,1,2.2,0,.6-.2,1.2-.6,1.8s-1.1,1.1-1.9,1.7l4,4.5c.3-.4,.6-.8,.8-1.2,.2-.4,.4-.8,.6-1.3l1.4,.6c-.2,.5-.4,1.1-.7,1.6-.3,.5-.6,1-1.1,1.5l2.3,2.6h-2l-1.5-1.6Zm-1.1-1.2l-4.2-4.7c-1,.6-1.7,1.2-2.1,1.8s-.7,1.2-.7,1.8c0,.8,.3,1.4,.9,2,.6,.5,1.3,.8,2.2,.8,.7,0,1.4-.1,2-.4,.6-.3,1.3-.7,1.9-1.3Zm-3.9-6.8c.7-.5,1.2-.9,1.5-1.3,.3-.4,.5-.8,.5-1.2,0-.5-.2-.9-.5-1.2s-.8-.5-1.3-.5-.9,.2-1.2,.5c-.3,.3-.5,.7-.5,1.2,0,.3,.1,.7,.4,1.2,.3,.4,.7,.8,1.1,1.3Z"/><path style="fill:#000000;" d="M130.5,50.55v-14.5h3.1c1.1,0,2.1,.1,2.7,.2,.7,.2,1.3,.4,1.8,.8,.5,.4,.9,.9,1.2,1.4,.3,.6,.4,1.2,.4,1.8,0,1.5-.5,2.6-1.6,3.4-1.1,.8-2.6,1.2-4.5,1.2h-1.4v5.7h-1.7Zm1.7-7.1h1.5c1.4,0,2.5-.3,3.3-.8,.7-.5,1.1-1.3,1.1-2.3s-.4-1.8-1.1-2.2c-.7-.5-1.9-.7-3.6-.7h-1.2v6Z"/><path style="fill:#000000;" d="M143.8,36.05v8.5c0,1.6,.3,2.8,1,3.7,.7,.8,1.7,1.2,3,1.2s2.3-.4,3-1.3c.7-.8,1-2.1,1-3.7v-8.4h1.6v8.7c0,2-.5,3.5-1.5,4.6s-2.4,1.7-4.1,1.7c-1.8,0-3.3-.5-4.3-1.6s-1.5-2.6-1.5-4.6v-8.7h1.8v-.1Z"/><path style="fill:#000000;" d="M157.2,50.55v-14.5h3.1c2,0,3.6,.4,4.6,1.1,1.1,.7,1.6,1.8,1.6,3.1,0,1-.3,1.9-1,2.7-.7,.7-1.6,1.2-2.8,1.4l5.3,6.2h-2.2l-5.1-6h-1.8v6h-1.7Zm1.7-7.3h1.5c1.4,0,2.5-.3,3.3-.8,.7-.5,1.1-1.2,1.1-2.2s-.4-1.7-1.1-2.2c-.7-.5-1.9-.7-3.6-.7h-1.2v5.9Z"/><path style="fill:#000000;" d="M169.3,47.95c.9,.6,1.7,1,2.3,1.2,.7,.2,1.3,.4,1.9,.4,.9,0,1.7-.2,2.2-.7,.6-.5,.8-1.1,.8-1.9,0-.6-.2-1.2-.6-1.6-.4-.5-1.2-.9-2.2-1.4l-1-.4c-1.1-.5-1.9-1.1-2.4-1.8s-.8-1.5-.8-2.3c0-1.1,.4-2,1.2-2.7s1.8-1,3-1c.6,0,1.2,.1,1.8,.3s1.2,.4,1.7,.7v1.8c-.6-.5-1.2-.8-1.8-1s-1.2-.3-1.7-.3c-.8,0-1.4,.2-1.8,.6-.5,.4-.7,.9-.7,1.6,0,.6,.2,1.1,.6,1.5,.4,.4,1.1,.9,2.1,1.3l1,.5c1.1,.5,2,1.1,2.6,1.9,.6,.7,.9,1.6,.9,2.5,0,1.2-.4,2.2-1.3,3-.9,.8-2,1.2-3.3,1.2-.7,0-1.3-.1-2-.3s-1.4-.5-2.1-.8l-.4-2.3Z"/><path style="fill:#000000;" d="M179,50.55l6.8-14.9h.2l6.8,14.9h-1.9l-1.6-3.7h-6.9l-1.6,3.7s-1.8,0-1.8,0Zm4.1-5.1h5.6l-2.8-6.4-2.8,6.4Z"/><path style="fill:#000000;" d="M194.5,50.55v-14.5h1.7v14.5h-1.7Z"/><path style="fill:#000000;" d="M200.1,50.55v-14.5h1.7v12.9h6.8v1.6h-8.5Z"/><path style="fill:#000000;" d="M210.7,50.55v-14.5h1.7v12.9h6.8v1.6h-8.5Z"/><path style="fill:#000000;" d="M111,74.25c.6,.4,1.1,.6,1.6,.8,.4,.2,.9,.2,1.2,.2,.6,0,1.1-.2,1.5-.5s.6-.7,.6-1.2c0-.4-.1-.8-.4-1.1-.3-.3-.8-.6-1.5-1l-.7-.3c-.7-.3-1.3-.7-1.6-1.2-.4-.5-.5-1-.5-1.5,0-.7,.3-1.3,.8-1.8s1.2-.7,2-.7c.4,0,.8,.1,1.2,.2,.4,.1,.8,.3,1.1,.5v1.2c-.4-.3-.8-.5-1.2-.7-.4-.2-.8-.2-1.2-.2-.5,0-.9,.1-1.2,.4-.3,.3-.5,.6-.5,1s.1,.7,.4,1,.7,.6,1.4,.9l.7,.3c.8,.3,1.3,.7,1.7,1.2,.4,.5,.6,1.1,.6,1.7,0,.8-.3,1.5-.9,2s-1.3,.8-2.2,.8c-.4,0-.9-.1-1.3-.2-.5-.1-.9-.3-1.4-.5l-.2-1.3Z"/><path style="fill:#000000;" d="M121.9,71.15c0-.7,.1-1.4,.4-2s.6-1.2,1-1.7,.9-.8,1.5-1.1c.6-.3,1.2-.4,1.8-.4s1.2,.1,1.8,.4c.6,.3,1.1,.6,1.5,1.1,.5,.5,.8,1,1,1.7,.2,.6,.4,1.3,.4,2,0,.6-.1,1.2-.2,1.7-.2,.5-.4,1-.7,1.5-.4,.6-1,1.1-1.7,1.5-.7,.3-1.4,.5-2.1,.5-.6,0-1.2-.1-1.8-.4-.6-.3-1.1-.6-1.5-1.1-.5-.5-.8-1-1-1.7s-.4-1.3-.4-2Zm1.2,0c0,1.2,.3,2.1,1,2.9s1.5,1.2,2.5,1.2,1.9-.4,2.5-1.2c.7-.8,1-1.7,1-2.9s-.3-2.1-1-2.9-1.5-1.2-2.5-1.2-1.9,.4-2.5,1.2c-.7,.8-1,1.7-1,2.9Z"/><path style="fill:#000000;" d="M136.9,75.95v-9.7h1.1v8.6h4.5v1h-5.6v.1Z"/><path style="fill:#000000;" d="M147.7,75.95v-9.7h1.1v9.7h-1.1Z"/><path style="fill:#000000;" d="M162.1,75.35c-.4,.3-.9,.5-1.4,.7s-1,.2-1.5,.2c-.6,0-1.1-.1-1.6-.3-.5-.2-1-.4-1.4-.8-.6-.5-1.1-1.1-1.4-1.8-.3-.7-.5-1.5-.5-2.3,0-1.5,.5-2.7,1.4-3.7s2.1-1.5,3.5-1.5c.5,0,1,.1,1.5,.2,.5,.2,.9,.4,1.4,.7l-.1,1.2c-.4-.4-.9-.6-1.3-.8s-.9-.3-1.4-.3c-1.1,0-2,.4-2.7,1.2-.7,.8-1.1,1.8-1.1,3s.3,2.2,1,2.9c.7,.8,1.6,1.2,2.6,1.2,.5,0,1-.1,1.5-.3,.5-.2,1-.5,1.5-.9v1.4Z"/><path style="fill:#000000;" d="M167.7,75.95v-9.7h1.1v9.7h-1.1Z"/><path style="fill:#000000;" d="M177.3,75.95v-8.6h-3.4v-1h8v1h-3.4v8.6h-1.2Z"/><path style="fill:#000000;" d="M186.2,71.15c0-.7,.1-1.4,.4-2,.2-.6,.6-1.2,1-1.7s.9-.8,1.5-1.1c.6-.3,1.2-.4,1.8-.4s1.2,.1,1.8,.4,1.1,.6,1.5,1.1c.5,.5,.8,1,1,1.7,.2,.6,.4,1.3,.4,2,0,.6-.1,1.2-.2,1.7-.2,.5-.4,1-.7,1.5-.4,.6-1,1.1-1.7,1.5-.7,.3-1.4,.5-2.1,.5-.6,0-1.2-.1-1.8-.4s-1.1-.6-1.5-1.1c-.5-.5-.8-1-1-1.7s-.4-1.3-.4-2Zm1.1,0c0,1.2,.3,2.1,1,2.9s1.5,1.2,2.5,1.2,1.9-.4,2.5-1.2c.7-.8,1-1.7,1-2.9s-.3-2.1-1-2.9-1.5-1.2-2.5-1.2-1.9,.4-2.6,1.2c-.5,.8-.9,1.7-.9,2.9Z"/><path style="fill:#000000;" d="M201.2,75.95v-9.7h2c1.4,0,2.4,.2,3.1,.7,.7,.5,1.1,1.2,1.1,2.1,0,.7-.2,1.3-.7,1.8s-1.1,.8-1.8,.9l3.5,4.1h-1.4l-3.4-4h-1.2v4h-1.2v.1Zm1.1-4.8h1c.9,0,1.7-.2,2.2-.5s.7-.8,.7-1.5-.2-1.1-.7-1.4-1.3-.5-2.4-.5h-.8v3.9h0Z"/><path style="fill:#000000;" d="M212.9,74.25c.6,.4,1.1,.6,1.6,.8,.4,.2,.9,.2,1.2,.2,.6,0,1.1-.2,1.5-.5s.6-.7,.6-1.2c0-.4-.1-.8-.4-1.1-.3-.3-.8-.6-1.5-1l-.7-.3c-.7-.3-1.3-.7-1.6-1.2-.4-.5-.5-1-.5-1.5,0-.7,.3-1.3,.8-1.8s1.2-.7,2-.7c.4,0,.8,.1,1.2,.2s.8,.3,1.1,.5v1.2c-.4-.3-.8-.5-1.2-.7s-.8-.2-1.2-.2c-.5,0-.9,.1-1.2,.4s-.5,.6-.5,1,.1,.7,.4,1c.3,.3,.7,.6,1.4,.9l.7,.3c.8,.3,1.3,.7,1.7,1.2s.6,1.1,.6,1.7c0,.8-.3,1.5-.9,2-.6,.5-1.3,.8-2.2,.8-.4,0-.9-.1-1.3-.2-.5-.1-.9-.3-1.4-.5l-.2-1.3Z"/><path style="fill:#b4cc95;" d="M219.4,59.25H110.3c-.2,0-.4-.2-.4-.4s.2-.4,.4-.4h109.1c.2,0,.4,.2,.4,.4s-.2,.4-.4,.4h0Z"/><path d="M42.8,42.65h-13.5c-.2,0-13.6-.4-13.6-13.7s13.5-13.4,13.6-13.4h13.5v27.1h0Zm-13.5-25.5s-3.1,0-6.1,1.5c-3.9,1.9-5.9,5.4-5.9,10.3,0,11.7,11.5,12.1,12,12.1h11.9V17.15h-11.9Z"/><path d="M42.8,68.15h-13.5c-.2,0-13.6-.4-13.6-13.7s13.5-13.4,13.6-13.4h13.5v27.1h0Zm-13.5-25.5s-3.1,0-6.1,1.5c-3.9,1.9-5.9,5.4-5.9,10.3,0,11.7,11.5,12.1,12,12.1h11.9v-23.9h-11.9Z"/><path d="M65.1,42.65h-13.6V15.45h13.5c.1,0,3.5,0,6.8,1.7,3.1,1.5,6.8,4.8,6.8,11.7,0,13.3-13.4,13.7-13.6,13.7h.1v.1Zm-12-1.7h11.9c.6,0,12-.5,12-12.1s-11.5-11.8-12-11.8h-11.9v23.9h0Z"/><polygon points="52.8 42.65 42 42.65 42 40.95 52.8 40.95 52.8 42.65"/><polygon points="48.1 46.05 46.5 46.05 46.5 37.55 48.1 37.55 48.1 46.05"/><path d="M53.1,16.25h-1.6V82.05c.5-.1,1.1-.1,1.6-.2V16.25Z"/></svg>